<svg width="28.000000" height="28.000000" viewBox="0 0 28 28" fill="none" xmlns="http://www.w3.org/2000/svg" xmlns:xlink="http://www.w3.org/1999/xlink">
	
	<defs>
		<clipPath id="clip2_59">
			<rect id="Frame 52" width="28.000000" height="28.000000" fill="white" fill-opacity="0"/>
		</clipPath>
	</defs>
	<g clip-path="url(#clip2_59)">
		<path id="Vector" d="M17.08 4.06C17.29 4.06 17.5 4.06 17.91 4.06L17.91 7.21C17.7 7.21 17.29 7.21 16.87 7.21C16.45 7.21 16.03 7.21 15.82 7.42C15.61 7.63 15.61 7.84 15.61 8.33C15.61 8.75 15.61 9.03 15.61 9.45L17.91 9.45L17.91 12.11L15.61 12.11L15.61 23.66L12.04 23.66L12.04 12.04L10.15 12.04L10.15 9.38L12.04 9.38L12.04 8.47C12.04 6.93 12.25 5.81 12.66 5.32C13.3 4.41 14.56 3.99 16.45 3.99C16.66 4.06 16.87 4.06 17.08 4.06Z" fill="#7E847F" fill-opacity="1.000000" fill-rule="nonzero"/>
	</g>
</svg>
