<svg width="18.919434" height="16.693176" viewBox="0 0 18.9194 16.6932" fill="none" xmlns="http://www.w3.org/2000/svg" xmlns:xlink="http://www.w3.org/1999/xlink">
	<defs/>
	<path id="Vector" d="M15.33 1.09C14.78 0.86 14.18 0.75 13.58 0.75C12.98 0.75 12.38 0.86 11.83 1.09C11.27 1.32 10.76 1.66 10.34 2.09L9.45 2.97L8.57 2.09C7.71 1.23 6.55 0.75 5.33 0.75C4.11 0.75 2.95 1.23 2.09 2.09C1.23 2.95 0.75 4.11 0.75 5.33C0.75 6.55 1.23 7.71 2.09 8.57L2.97 9.45L9.45 15.94L15.94 9.45L16.82 8.57C17.25 8.15 17.58 7.64 17.82 7.08C18.05 6.53 18.16 5.93 18.16 5.33C18.16 4.73 18.05 4.13 17.82 3.58C17.58 3.02 17.25 2.51 16.82 2.09C16.4 1.66 15.89 1.32 15.33 1.09Z" stroke="#F6F6F6" stroke-opacity="1.000000" stroke-width="1.500000" stroke-linejoin="round"/>
</svg>
