<svg width="28.000000" height="28.000000" viewBox="0 0 28 28" fill="none" xmlns="http://www.w3.org/2000/svg" xmlns:xlink="http://www.w3.org/1999/xlink">
	
	<defs>
		<clipPath id="clip3512_4863">
			<rect id="icons / 40x40 / instagram" width="28.000000" height="28.000000" fill="white" fill-opacity="0"/>
		</clipPath>
	</defs>
	<g opacity="0.800000">
		<rect id="icons / 40x40 / instagram" width="28.000000" height="28.000000" fill="#FFFFFF" fill-opacity="0"/>
		<g clip-path="url(#clip3512_4863)">
			<path id="Vector" d="M25.12 9.41C25.11 8.47 24.93 7.53 24.6 6.65C24.02 5.15 22.83 3.97 21.33 3.38C20.46 3.06 19.54 2.88 18.61 2.86C17.41 2.81 17.03 2.79 13.99 2.79C10.96 2.79 10.57 2.79 9.38 2.86C8.45 2.88 7.53 3.06 6.66 3.38C5.16 3.97 3.97 5.15 3.39 6.65C3.06 7.52 2.88 8.44 2.86 9.37C2.81 10.56 2.79 10.94 2.79 13.98C2.79 17.01 2.79 17.4 2.86 18.58C2.88 19.51 3.06 20.43 3.39 21.3C3.97 22.8 5.16 23.99 6.66 24.57C7.53 24.9 8.45 25.1 9.38 25.13C10.58 25.18 10.96 25.2 14 25.2C17.03 25.2 17.42 25.2 18.61 25.13C19.54 25.11 20.46 24.93 21.33 24.61C22.83 24.02 24.02 22.84 24.6 21.34C24.93 20.47 25.11 19.55 25.12 18.62C25.18 17.42 25.2 17.05 25.2 14.01C25.19 10.98 25.19 10.59 25.12 9.41ZM13.99 19.71C10.81 19.71 8.24 17.14 8.24 13.97C8.24 10.8 10.81 8.23 13.99 8.23C17.16 8.23 19.74 10.8 19.74 13.97C19.74 17.14 17.16 19.71 13.99 19.71ZM19.97 9.35C19.22 9.35 18.62 8.76 18.62 8.02C18.62 7.28 19.22 6.68 19.97 6.68C20.71 6.68 21.31 7.28 21.31 8.02C21.31 8.76 20.71 9.35 19.97 9.35Z" fill="#7E847F" fill-opacity="1.000000" fill-rule="nonzero"/>
			<path id="Vector" d="M17.49 13.97C17.49 15.91 15.92 17.47 13.99 17.47C12.05 17.47 10.48 15.91 10.48 13.97C10.48 12.04 12.05 10.47 13.99 10.47C15.92 10.47 17.49 12.04 17.49 13.97Z" fill="#7E847F" fill-opacity="1.000000" fill-rule="evenodd"/>
		</g>
	</g>
</svg>
