<svg width="48.000000" height="48.000000" viewBox="0 0 48 48" fill="none" xmlns="http://www.w3.org/2000/svg" xmlns:xlink="http://www.w3.org/1999/xlink">

	<defs>
		<clipPath id="clip3504_747">
			<rect id="inverted commas" width="48.000000" height="48.000000" fill="white" fill-opacity="0"/>
		</clipPath>
	</defs>
	<rect id="inverted commas" width="48.000000" height="48.000000" fill="#FFFFFF" fill-opacity="0"/>
	<g clip-path="url(#clip3504_747)">
		<path id="Vector" d="M12.3 26.2C14.62 25.28 16.47 25.52 17.87 26.92C19.27 28.32 19.69 30.55 19.12 33.61C18.68 35.89 17.72 37.64 16.23 38.86C14.79 40.04 13.11 40.64 11.18 40.64C8.56 40.64 6.74 39.63 5.73 37.62C4.73 35.56 4.53 32.8 5.14 29.35C5.49 27.47 6.06 25.56 6.85 23.64C7.64 21.71 8.69 19.74 10 17.73C11.31 15.72 13.02 13.97 15.12 12.48C17.22 10.99 19.54 10.03 22.08 9.59L21.42 16.55C19.27 16.99 17.37 18.1 15.71 19.9C14.05 21.65 12.91 23.75 12.3 26.2ZM32.05 26.2C34.37 25.28 36.23 25.52 37.63 26.92C39.03 28.32 39.44 30.55 38.87 33.61C38.44 35.89 37.47 37.64 35.99 38.86C34.54 40.04 32.86 40.64 30.93 40.64C28.31 40.64 26.49 39.63 25.49 37.62C24.48 35.56 24.28 32.8 24.9 29.35C25.25 27.47 25.82 25.56 26.6 23.64C27.39 21.71 28.44 19.74 29.75 17.73C31.07 15.72 32.77 13.97 34.87 12.48C36.97 10.99 39.29 10.03 41.83 9.59L41.17 16.55C39.03 16.99 37.12 18.1 35.46 19.9C33.8 21.65 32.66 23.75 32.05 26.2Z" fill="#F6F6F6" fill-opacity="1.000000" fill-rule="nonzero"/>
	</g>
</svg>
